<svg viewBox="0 0 570 125" fill="none" xmlns="http://www.w3.org/2000/svg">
    <path d="M.86 19.2V.72h8.68V19.2H.86Z"/>
    <path d="M8.863 19.2V.72h8.68V19.2h-8.68Z"/>
    <path d="M21.905 19.2V9.12h-5.18v-1.4h6.58V19.2h-1.4Zm-2.8 0v-7.28h-2.38v-1.4h3.78v8.68h-1.4ZM72.883 19.2V.72h8.68V19.2h-8.68Z"/>
    <path d="M80.885 19.2V.72h8.68V19.2h-8.68Z"/>
    <path d="M88.888 19.2V.72h8.68V19.2h-8.68Z"/>
    <path d="M96.89 19.2V.72h8.68V19.2h-8.68Z"/>
    <path d="M104.893 19.2V.72h8.68V19.2h-8.68Z"/>
    <path d="M117.935 19.2V9.12h-5.18v-1.4h6.58V19.2h-1.4Zm-2.8 0v-7.28h-2.38v-1.4h3.78v8.68h-1.4ZM128.9 19.2V.72h8.68V19.2h-8.68Z"/>
    <path d="M136.903 19.2V.72h8.68V19.2h-8.68Z"/>
    <path d="M144.906 19.2V.72h8.68V19.2h-8.68Z"/>
    <path d="M152.908 19.2V.72h8.68V19.2h-8.68Z"/>
    <path d="M160.911 19.2V.72h8.68V19.2h-8.68Z"/>
    <path d="M168.913 19.2V.72h8.68V19.2h-8.68Z"/>
    <path d="M176.916 19.2V.72h8.68V19.2h-8.68Z"/>
    <path d="M189.958 19.2V9.12h-5.18v-1.4h6.58V19.2h-1.4Zm-2.8 0v-7.28h-2.38v-1.4h3.78v8.68h-1.4ZM192.921 19.2V.72h8.68V19.2h-8.68Z"/>
    <path d="M200.923 19.2V.72h8.68V19.2h-8.68Z"/>
    <path d="M213.966 19.2V9.12h-5.18v-1.4h6.58V19.2h-1.4Zm-2.8 0v-7.28h-2.38v-1.4h3.78v8.68h-1.4ZM240.936 19.2V.72h8.68V19.2h-8.68Z"/>
    <path d="M248.938 19.2V.72h8.68V19.2h-8.68Z"/>
    <path d="M261.981 19.2V9.12h-5.18v-1.4h6.58V19.2h-1.4Zm-2.8 0v-7.28h-2.38v-1.4h3.78v8.68h-1.4ZM264.944 19.2V.72h8.68V19.2h-8.68Z"/>
    <path d="M272.946 19.2V.72h8.68V19.2h-8.68Z"/>
    <path d="M285.989 19.2V9.12h-5.18v-1.4h6.58V19.2h-1.4Zm-2.8 0v-7.28h-2.38v-1.4h3.78v8.68h-1.4ZM312.959 19.2V.72h8.68V19.2h-8.68Z"/>
    <path d="M320.961 19.2V.72h8.68V19.2h-8.68Z"/>
    <path d="M334.004 19.2V9.12h-5.18v-1.4h6.58V19.2h-1.4Zm-2.8 0v-7.28h-2.38v-1.4h3.78v8.68h-1.4ZM336.966 19.2V.72h8.68V19.2h-8.68Z"/>
    <path d="M344.969 19.2V.72h8.68V19.2h-8.68Z"/>
    <path d="M358.011 19.2V9.12h-5.18v-1.4h6.58V19.2h-1.4Zm-2.8 0v-7.28h-2.38v-1.4h3.78v8.68h-1.4ZM360.974 19.2V.72h8.68V19.2h-8.68Z"/>
    <path d="M368.976 19.2V.72h8.68V19.2h-8.68Z"/>
    <path d="M376.979 19.2V.72h8.68V19.2h-8.68Z"/>
    <path d="M390.021 19.2V9.12h-5.179v-1.4h6.579V19.2h-1.4Zm-2.799 0v-7.28h-2.38v-1.4h3.78v8.68h-1.4ZM416.992 19.2V.72h8.68V19.2h-8.68Z"/>
    <path d="M424.994 19.2V.72h8.68V19.2h-8.68Z"/>
    <path d="M432.997 19.2V.72h8.68V19.2h-8.68Z"/>
    <path d="M446.039 19.2V9.12h-5.18v-1.4h6.58V19.2h-1.4Zm-2.8 0v-7.28h-2.38v-1.4h3.78v8.68h-1.4ZM530.357 15v-1.26l4.606-7.812h-4.536V4.78h5.81v1.26l-4.606 7.812h4.746V15h-6.02ZM.86 36.2V17.72h8.68V36.2H.86Z"/>
    <path d="M8.863 36.2V17.72h8.68V36.2h-8.68ZM21.905 36.2V17.72h1.4V36.2h-1.4Zm-2.8 0V17.72h1.4V36.2h-1.4ZM64.88 36.2V17.72h8.68V36.2h-8.68Z"/>
    <path d="M72.883 36.2V17.72h8.68V36.2h-8.68ZM83.125 36.2V24.72h6.58v1.4h-5.18V36.2h-1.4Zm2.8 0v-8.68h3.78v1.4h-2.38v7.28h-1.4Z"/>
    <path d="M88.748 26.12v-1.4h8.96v1.4h-8.96Zm0 2.8v-1.4h8.96v1.4h-8.96Z"/>
    <path d="M96.75 26.12v-1.4h8.96v1.4h-8.96Zm0 2.8v-1.4h8.96v1.4h-8.96Z"/>
    <path d="M104.893 36.2V17.72h8.68V36.2h-8.68Z"/>
    <path d="M112.895 36.2V17.72h8.68V36.2h-8.68Z"/>
    <path d="M125.938 36.2V26.12h-5.18v-1.4h6.58V36.2h-1.4Zm-2.8 0v-7.28h-2.38v-1.4h3.78v8.68h-1.4ZM131.141 28.92v-11.2h1.399v9.8h5.18v1.4h-6.579Zm2.799-2.8v-8.4h1.4v7h2.38v1.4h-3.78Z"/>
    <path d="M136.763 26.12v-1.4h8.96v1.4h-8.96Zm0 2.8v-1.4h8.96v1.4h-8.96Z"/>
    <path d="M144.766 26.12v-1.4h8.96v1.4h-8.96Zm0 2.8v-1.4h8.96v1.4h-8.96Z"/>
    <path d="M152.908 36.2V17.72h8.68V36.2h-8.68Z"/>
    <path d="M160.911 36.2V17.72h8.68V36.2h-8.68Z"/>
    <path d="M168.913 36.2V17.72h8.68V36.2h-8.68ZM179.156 36.2V24.72h6.58v1.4h-5.18V36.2h-1.4Zm2.8 0v-8.68h3.78v1.4h-2.38v7.28h-1.4Z"/>
    <path d="M184.778 28.92v-1.4h5.18v-9.8h1.4v11.2h-6.58Zm0-2.8v-1.4h2.38v-7h1.4v8.4h-3.78ZM195.161 28.92v-11.2h1.4v9.8h5.18v1.4h-6.58Zm2.8-2.8v-8.4h1.4v7h2.38v1.4h-3.78Z"/>
    <path d="M200.923 36.2V17.72h8.68V36.2h-8.68Z"/>
    <path d="M208.926 36.2V17.72h8.68V36.2h-8.68Z"/>
    <path d="M221.968 36.2V26.12h-5.18v-1.4h6.58V36.2h-1.4Zm-2.8 0v-7.28h-2.38v-1.4h3.78v8.68h-1.4ZM232.933 36.2V17.72h8.68V36.2h-8.68Z"/>
    <path d="M240.936 36.2V17.72h8.68V36.2h-8.68ZM251.178 36.2V24.72h6.58v1.4h-5.18V36.2h-1.4Zm2.8 0v-8.68h3.78v1.4h-2.38v7.28h-1.4Z"/>
    <path d="M256.801 28.92v-1.4h5.18v-9.8h1.4v11.2h-6.58Zm0-2.8v-1.4h2.38v-7h1.4v8.4h-3.78ZM264.944 36.2V17.72h8.68V36.2h-8.68Z"/>
    <path d="M272.946 36.2V17.72h8.68V36.2h-8.68ZM285.989 36.2V17.72h1.4V36.2h-1.4Zm-2.8 0V17.72h1.4V36.2h-1.4ZM312.959 36.2V17.72h8.68V36.2h-8.68Z"/>
    <path d="M320.961 36.2V17.72h8.68V36.2h-8.68ZM334.004 36.2V17.72h1.4V36.2h-1.4Zm-2.8 0V17.72h1.4V36.2h-1.4ZM336.966 36.2V17.72h8.68V36.2h-8.68Z"/>
    <path d="M344.969 36.2V17.72h8.68V36.2h-8.68ZM358.011 36.2V17.72h1.4V36.2h-1.4Zm-2.8 0V17.72h1.4V36.2h-1.4ZM360.974 36.2V17.72h8.68V36.2h-8.68Z"/>
    <path d="M368.976 36.2V17.72h8.68V36.2h-8.68Z"/>
    <path d="M376.979 36.2V17.72h8.68V36.2h-8.68Z"/>
    <path d="M384.981 36.2V17.72h8.681V36.2h-8.681Z"/>
    <path d="M398.024 36.2V26.12h-5.18v-1.4h6.58V36.2h-1.4Zm-2.8 0v-7.28h-2.38v-1.4h3.78v8.68h-1.4ZM408.989 36.2V17.72h8.68V36.2h-8.68Z"/>
    <path d="M416.992 36.2V17.72h8.68V36.2h-8.68Z"/>
    <path d="M424.994 36.2V17.72h8.68V36.2h-8.68Z"/>
    <path d="M432.997 36.2V17.72h8.68V36.2h-8.68ZM446.039 36.2V17.72h1.4V36.2h-1.4Zm-2.8 0V17.72h1.4V36.2h-1.4ZM498.347 32v-1.26l4.606-7.812h-4.536V21.78h5.81v1.26l-4.606 7.812h4.746V32h-6.02ZM.86 53.2V34.72h8.68V53.2H.86Z"/>
    <path d="M8.863 53.2V34.72h8.68V53.2h-8.68ZM21.905 53.2V34.72h1.4V53.2h-1.4Zm-2.8 0V34.72h1.4V53.2h-1.4ZM64.88 53.2V34.72h8.68V53.2h-8.68Z"/>
    <path d="M72.883 53.2V34.72h8.68V53.2h-8.68Z"/>
    <path d="M80.885 53.2V34.72h8.68V53.2h-8.68Z"/>
    <path d="M88.888 53.2V34.72h8.68V53.2h-8.68Z"/>
    <path d="M96.89 53.2V34.72h8.68V53.2h-8.68Z"/>
    <path d="M104.893 53.2V34.72h8.68V53.2h-8.68Z"/>
    <path d="M112.895 53.2V34.72h8.68V53.2h-8.68ZM125.938 53.2V34.72h1.4V53.2h-1.4Zm-2.8 0V34.72h1.4V53.2h-1.4ZM144.906 53.2V34.72h8.68V53.2h-8.68Z"/>
    <path d="M152.908 53.2V34.72h8.68V53.2h-8.68Z"/>
    <path d="M160.911 53.2V34.72h8.68V53.2h-8.68ZM171.153 53.2V41.72h6.58v1.4h-5.18V53.2h-1.4Zm2.8 0v-8.68h3.78v1.4h-2.38v7.28h-1.4Z"/>
    <path d="M176.776 45.92v-1.4h5.18v-9.8h1.4v11.2h-6.58Zm0-2.8v-1.4h2.38v-7h1.4v8.4h-3.78ZM203.163 45.92v-11.2h1.4v9.8h5.18v1.4h-6.58Zm2.8-2.8v-8.4h1.4v7h2.38v1.4h-3.78Z"/>
    <path d="M208.926 53.2V34.72h8.68V53.2h-8.68Z"/>
    <path d="M216.928 53.2V34.72h8.68V53.2h-8.68Z"/>
    <path d="M224.931 53.2V34.72h8.68V53.2h-8.68Z"/>
    <path d="M232.933 53.2V34.72h8.68V53.2h-8.68ZM243.176 53.2V41.72h6.58v1.4h-5.18V53.2h-1.4Zm2.8 0v-8.68h3.78v1.4h-2.38v7.28h-1.4Z"/>
    <path d="M248.798 45.92v-1.4h5.18v-9.8h1.4v11.2h-6.58Zm0-2.8v-1.4h2.38v-7h1.4v8.4h-3.78ZM264.944 53.2V34.72h8.68V53.2h-8.68Z"/>
    <path d="M272.946 53.2V34.72h8.68V53.2h-8.68ZM285.989 53.2V34.72h1.4V53.2h-1.4Zm-2.8 0V34.72h1.4V53.2h-1.4ZM312.959 53.2V34.72h8.68V53.2h-8.68Z"/>
    <path d="M320.961 53.2V34.72h8.68V53.2h-8.68ZM334.004 53.2V34.72h1.4V53.2h-1.4Zm-2.8 0V34.72h1.4V53.2h-1.4ZM336.966 53.2V34.72h8.68V53.2h-8.68Z"/>
    <path d="M344.969 53.2V34.72h8.68V53.2h-8.68ZM358.011 53.2V34.72h1.4V53.2h-1.4Zm-2.8 0V34.72h1.4V53.2h-1.4ZM360.974 53.2V34.72h8.68V53.2h-8.68Z"/>
    <path d="M368.976 53.2V34.72h8.68V53.2h-8.68ZM379.219 53.2V41.72h6.58v1.4h-5.18V53.2h-1.4Zm2.8 0v-8.68h3.78v1.4h-2.38v7.28h-1.4Z"/>
    <path d="M384.981 53.2V34.72h8.681V53.2h-8.681Z"/>
    <path d="M392.984 53.2V34.72h8.68V53.2h-8.68Z"/>
    <path d="M400.987 53.2V34.72h8.68V53.2h-8.68Z"/>
    <path d="M408.989 53.2V34.72h8.68V53.2h-8.68ZM419.232 53.2V41.72h6.58v1.4h-5.18V53.2h-1.4Zm2.8 0v-8.68h3.78v1.4h-2.38v7.28h-1.4Z"/>
    <path d="M424.994 53.2V34.72h8.68V53.2h-8.68Z"/>
    <path d="M432.997 53.2V34.72h8.68V53.2h-8.68ZM446.039 53.2V34.72h1.4V53.2h-1.4Zm-2.8 0V34.72h1.4V53.2h-1.4ZM474.409 49v-1.26l4.312-5.292h-4.2V41.3h5.614v1.26l-4.396 5.292h4.55V49h-5.88ZM.86 70.2V51.72h8.68V70.2H.86Z"/>
    <path d="M8.863 70.2V51.72h8.68V70.2h-8.68ZM21.905 70.2V51.72h1.4V70.2h-1.4Zm-2.8 0V51.72h1.4V70.2h-1.4ZM64.88 70.2V51.72h8.68V70.2h-8.68Z"/>
    <path d="M72.883 70.2V51.72h8.68V70.2h-8.68ZM83.125 70.2V58.72h6.58v1.4h-5.18V70.2h-1.4Zm2.8 0v-8.68h3.78v1.4h-2.38v7.28h-1.4Z"/>
    <path d="M88.748 60.12v-1.4h8.96v1.4h-8.96Zm0 2.8v-1.4h8.96v1.4h-8.96Z"/>
    <path d="M96.75 60.12v-1.4h8.96v1.4h-8.96Zm0 2.8v-1.4h8.96v1.4h-8.96Z"/>
    <path d="M104.893 70.2V51.72h8.68V70.2h-8.68Z"/>
    <path d="M112.895 70.2V51.72h8.68V70.2h-8.68ZM125.938 70.2V51.72h1.4V70.2h-1.4Zm-2.8 0V51.72h1.4V70.2h-1.4ZM136.903 70.2V51.72h8.68V70.2h-8.68Z"/>
    <path d="M144.906 70.2V51.72h8.68V70.2h-8.68Z"/>
    <path d="M152.908 70.2V51.72h8.68V70.2h-8.68ZM163.151 70.2V58.72h6.58v1.4h-5.18V70.2h-1.4Zm2.8 0v-8.68h3.78v1.4h-2.38v7.28h-1.4Z"/>
    <path d="M168.773 62.92v-1.4h5.18v-9.8h1.4v11.2h-6.58Zm0-2.8v-1.4h2.38v-7h1.4v8.4h-3.78ZM211.166 62.92v-11.2h1.4v9.8h5.18v1.4h-6.58Zm2.8-2.8v-8.4h1.4v7h2.38v1.4h-3.78Z"/>
    <path d="M216.928 70.2V51.72h8.68V70.2h-8.68Z"/>
    <path d="M224.931 70.2V51.72h8.68V70.2h-8.68ZM235.173 70.2V58.72h6.58v1.4h-5.18V70.2h-1.4Zm2.8 0v-8.68h3.78v1.4h-2.38v7.28h-1.4Z"/>
    <path d="M240.796 62.92v-1.4h5.18v-9.8h1.4v11.2h-6.58Zm0-2.8v-1.4h2.38v-7h1.4v8.4h-3.78ZM267.184 62.92v-11.2h1.4v9.8h5.18v1.4h-6.58Zm2.8-2.8v-8.4h1.4v7h2.38v1.4h-3.78Z"/>
    <path d="M272.946 70.2V51.72h8.68V70.2h-8.68Z"/>
    <path d="M280.949 70.2V51.72h8.68V70.2h-8.68Z"/>
    <path d="M293.991 70.2V60.12h-5.18v-1.4h6.58V70.2h-1.4Zm-2.8 0v-7.28h-2.38v-1.4h3.78v8.68h-1.4ZM304.956 70.2V51.72h8.68V70.2h-8.68Z"/>
    <path d="M312.959 70.2V51.72h8.68V70.2h-8.68ZM323.201 70.2V58.72h6.58v1.4h-5.18V70.2h-1.4Zm2.8 0v-8.68h3.78v1.4h-2.38v7.28h-1.4Z"/>
    <path d="M328.824 62.92v-1.4h5.18v-9.8h1.4v11.2h-6.58Zm0-2.8v-1.4h2.38v-7h1.4v8.4h-3.78ZM336.966 70.2V51.72h8.68V70.2h-8.68Z"/>
    <path d="M344.969 70.2V51.72h8.68V70.2h-8.68ZM358.011 70.2V51.72h1.4V70.2h-1.4Zm-2.8 0V51.72h1.4V70.2h-1.4ZM360.974 70.2V51.72h8.68V70.2h-8.68Z"/>
    <path d="M368.976 70.2V51.72h8.68V70.2h-8.68ZM382.019 70.2V51.72h1.4V70.2h-1.4Zm-2.8 0V51.72h1.4V70.2h-1.4ZM387.222 62.92v-11.2h1.4v9.8h5.179v1.4h-6.579Zm2.799-2.8v-8.4h1.4v7h2.38v1.4h-3.78Z"/>
    <path d="M392.984 70.2V51.72h8.68V70.2h-8.68Z"/>
    <path d="M400.987 70.2V51.72h8.68V70.2h-8.68ZM411.229 70.2V58.72h6.58v1.4h-5.18V70.2h-1.4Zm2.8 0v-8.68h3.78v1.4h-2.38v7.28h-1.4Z"/>
    <path d="M416.852 62.92v-1.4h5.18v-9.8h1.4v11.2h-6.58Zm0-2.8v-1.4h2.38v-7h1.4v8.4h-3.78ZM424.994 70.2V51.72h8.68V70.2h-8.68Z"/>
    <path d="M432.997 70.2V51.72h8.68V70.2h-8.68ZM446.039 70.2V51.72h1.4V70.2h-1.4Zm-2.8 0V51.72h1.4V70.2h-1.4ZM458.404 66v-1.26l4.312-5.292h-4.2V58.3h5.614v1.26l-4.396 5.292h4.55V66h-5.88ZM.86 87.2V68.72h8.68V87.2H.86Z"/>
    <path d="M8.863 87.2V68.72h8.68V87.2h-8.68Z"/>
    <path d="M16.865 87.2V68.72h8.68V87.2h-8.68Z"/>
    <path d="M24.868 87.2V68.72h8.68V87.2h-8.68Z"/>
    <path d="M32.87 87.2V68.72h8.68V87.2h-8.68Z"/>
    <path d="M40.873 87.2V68.72h8.68V87.2h-8.68Z"/>
    <path d="M48.875 87.2V68.72h8.68V87.2h-8.68Z"/>
    <path d="M61.918 87.2V77.12h-5.18v-1.4h6.58V87.2h-1.4Zm-2.8 0v-7.28h-2.38v-1.4h3.78v8.68h-1.4ZM64.88 87.2V68.72h8.68V87.2h-8.68Z"/>
    <path d="M72.883 87.2V68.72h8.68V87.2h-8.68ZM85.925 87.2V68.72h1.4V87.2h-1.4Zm-2.8 0V68.72h1.4V87.2h-1.4ZM104.893 87.2V68.72h8.68V87.2h-8.68Z"/>
    <path d="M112.895 87.2V68.72h8.68V87.2h-8.68ZM125.938 87.2V68.72h1.4V87.2h-1.4Zm-2.8 0V68.72h1.4V87.2h-1.4ZM128.9 87.2V68.72h8.68V87.2h-8.68Z"/>
    <path d="M136.903 87.2V68.72h8.68V87.2h-8.68Z"/>
    <path d="M144.906 87.2V68.72h8.68V87.2h-8.68Z"/>
    <path d="M152.908 87.2V68.72h8.68V87.2h-8.68Z"/>
    <path d="M160.911 87.2V68.72h8.68V87.2h-8.68Z"/>
    <path d="M168.913 87.2V68.72h8.68V87.2h-8.68Z"/>
    <path d="M176.916 87.2V68.72h8.68V87.2h-8.68Z"/>
    <path d="M189.958 87.2V77.12h-5.18v-1.4h6.58V87.2h-1.4Zm-2.8 0v-7.28h-2.38v-1.4h3.78v8.68h-1.4ZM216.928 87.2V68.72h8.68V87.2h-8.68Z"/>
    <path d="M224.931 87.2V68.72h8.68V87.2h-8.68ZM237.973 87.2V68.72h1.4V87.2h-1.4Zm-2.8 0V68.72h1.4V87.2h-1.4ZM275.186 79.92v-11.2h1.4v9.8h5.18v1.4h-6.58Zm2.8-2.8v-8.4h1.4v7h2.38v1.4h-3.78Z"/>
    <path d="M280.949 87.2V68.72h8.68V87.2h-8.68Z"/>
    <path d="M288.951 87.2V68.72h8.68V87.2h-8.68Z"/>
    <path d="M296.954 87.2V68.72h8.68V87.2h-8.68Z"/>
    <path d="M304.956 87.2V68.72h8.68V87.2h-8.68ZM315.199 87.2V75.72h6.58v1.4h-5.18V87.2h-1.4Zm2.8 0v-8.68h3.78v1.4h-2.38v7.28h-1.4Z"/>
    <path d="M320.821 79.92v-1.4h5.18v-9.8h1.4v11.2h-6.58Zm0-2.8v-1.4h2.38v-7h1.4v8.4h-3.78ZM336.966 87.2V68.72h8.68V87.2h-8.68Z"/>
    <path d="M344.969 87.2V68.72h8.68V87.2h-8.68ZM358.011 87.2V68.72h1.4V87.2h-1.4Zm-2.8 0V68.72h1.4V87.2h-1.4ZM360.974 87.2V68.72h8.68V87.2h-8.68Z"/>
    <path d="M368.976 87.2V68.72h8.68V87.2h-8.68ZM382.019 87.2V68.72h1.4V87.2h-1.4Zm-2.8 0V68.72h1.4V87.2h-1.4ZM395.224 79.92v-11.2h1.4v9.8h5.18v1.4h-6.58Zm2.8-2.8v-8.4h1.4v7h2.38v1.4h-3.78Z"/>
    <path d="M400.847 77.12v-1.4h8.96v1.4h-8.96Zm0 2.8v-1.4h8.96v1.4h-8.96Z"/>
    <path d="M408.849 79.92v-1.4h5.18v-9.8h1.4v11.2h-6.58Zm0-2.8v-1.4h2.38v-7h1.4v8.4h-3.78ZM424.994 87.2V68.72h8.68V87.2h-8.68Z"/>
    <path d="M432.997 87.2V68.72h8.68V87.2h-8.68ZM446.039 87.2V68.72h1.4V87.2h-1.4Zm-2.8 0V68.72h1.4V87.2h-1.4ZM3.1 96.92v-11.2h1.4v9.8h5.18v1.4H3.1Zm2.8-2.8v-8.4h1.4v7h2.38v1.4H5.9Z"/>
    <path d="M8.723 94.12v-1.4h8.96v1.4h-8.96Zm0 2.8v-1.4h8.96v1.4h-8.96Z"/>
    <path d="M16.725 94.12v-1.4h8.96v1.4h-8.96Zm0 2.8v-1.4h8.96v1.4h-8.96Z"/>
    <path d="M24.728 94.12v-1.4h8.96v1.4h-8.96Zm0 2.8v-1.4h8.96v1.4h-8.96Z"/>
    <path d="M32.73 94.12v-1.4h8.96v1.4h-8.96Zm0 2.8v-1.4h8.96v1.4h-8.96Z"/>
    <path d="M40.733 94.12v-1.4h8.96v1.4h-8.96Zm0 2.8v-1.4h8.96v1.4h-8.96Z"/>
    <path d="M48.735 94.12v-1.4h8.96v1.4h-8.96Zm0 2.8v-1.4h8.96v1.4h-8.96Z"/>
    <path d="M56.738 96.92v-1.4h5.18v-9.8h1.4v11.2h-6.58Zm0-2.8v-1.4h2.38v-7h1.4v8.4h-3.78ZM67.12 96.92v-11.2h1.4v9.8h5.18v1.4h-6.58Zm2.8-2.8v-8.4h1.4v7h2.38v1.4h-3.78Z"/>
    <path d="M72.743 94.12v-1.4h8.96v1.4h-8.96Zm0 2.8v-1.4h8.96v1.4h-8.96Z"/>
    <path d="M80.745 96.92v-1.4h5.18v-9.8h1.4v11.2h-6.58Zm0-2.8v-1.4h2.38v-7h1.4v8.4h-3.78ZM107.133 96.92v-11.2h1.4v9.8h5.18v1.4h-6.58Zm2.8-2.8v-8.4h1.4v7h2.38v1.4h-3.78Z"/>
    <path d="M112.755 94.12v-1.4h8.96v1.4h-8.96Zm0 2.8v-1.4h8.96v1.4h-8.96Z"/>
    <path d="M120.758 96.92v-1.4h5.18v-9.8h1.4v11.2h-6.58Zm0-2.8v-1.4h2.38v-7h1.4v8.4h-3.78ZM131.141 96.92v-11.2h1.399v9.8h5.18v1.4h-6.579Zm2.799-2.8v-8.4h1.4v7h2.38v1.4h-3.78Z"/>
    <path d="M136.763 94.12v-1.4h8.96v1.4h-8.96Zm0 2.8v-1.4h8.96v1.4h-8.96Z"/>
    <path d="M144.766 94.12v-1.4h8.96v1.4h-8.96Zm0 2.8v-1.4h8.96v1.4h-8.96Z"/>
    <path d="M152.768 94.12v-1.4h8.96v1.4h-8.96Zm0 2.8v-1.4h8.96v1.4h-8.96Z"/>
    <path d="M160.771 94.12v-1.4h8.96v1.4h-8.96Zm0 2.8v-1.4h8.96v1.4h-8.96Z"/>
    <path d="M168.773 94.12v-1.4h8.96v1.4h-8.96Zm0 2.8v-1.4h8.96v1.4h-8.96Z"/>
    <path d="M176.776 94.12v-1.4h8.96v1.4h-8.96Zm0 2.8v-1.4h8.96v1.4h-8.96Z"/>
    <path d="M184.778 96.92v-1.4h5.18v-9.8h1.4v11.2h-6.58Zm0-2.8v-1.4h2.38v-7h1.4v8.4h-3.78ZM219.168 96.92v-11.2h1.4v9.8h5.18v1.4h-6.58Zm2.8-2.8v-8.4h1.4v7h2.38v1.4h-3.78Z"/>
    <path d="M224.791 94.12v-1.4h8.96v1.4h-8.96Zm0 2.8v-1.4h8.96v1.4h-8.96Z"/>
    <path d="M232.793 96.92v-1.4h5.18v-9.8h1.4v11.2h-6.58Zm0-2.8v-1.4h2.38v-7h1.4v8.4h-3.78ZM283.189 96.92v-11.2h1.4v9.8h5.18v1.4h-6.58Zm2.8-2.8v-8.4h1.4v7h2.38v1.4h-3.78Z"/>
    <path d="M288.811 94.12v-1.4h8.96v1.4h-8.96Zm0 2.8v-1.4h8.96v1.4h-8.96Z"/>
    <path d="M296.814 94.12v-1.4h8.96v1.4h-8.96Zm0 2.8v-1.4h8.96v1.4h-8.96Z"/>
    <path d="M304.816 94.12v-1.4h8.96v1.4h-8.96Zm0 2.8v-1.4h8.96v1.4h-8.96Z"/>
    <path d="M312.819 96.92v-1.4h5.18v-9.8h1.4v11.2h-6.58Zm0-2.8v-1.4h2.38v-7h1.4v8.4h-3.78ZM339.206 96.92v-11.2h1.4v9.8h5.18v1.4h-6.58Zm2.8-2.8v-8.4h1.4v7h2.38v1.4h-3.78Z"/>
    <path d="M344.829 94.12v-1.4h8.96v1.4h-8.96Zm0 2.8v-1.4h8.96v1.4h-8.96Z"/>
    <path d="M352.831 96.92v-1.4h5.18v-9.8h1.4v11.2h-6.58Zm0-2.8v-1.4h2.38v-7h1.4v8.4h-3.78ZM363.214 96.92v-11.2h1.4v9.8h5.18v1.4h-6.58Zm2.8-2.8v-8.4h1.4v7h2.38v1.4h-3.78Z"/>
    <path d="M368.836 94.12v-1.4h8.96v1.4h-8.96Zm0 2.8v-1.4h8.96v1.4h-8.96Z"/>
    <path d="M376.839 96.92v-1.4h5.18v-9.8h1.4v11.2h-6.58Zm0-2.8v-1.4h2.38v-7h1.4v8.4h-3.78ZM427.234 96.92v-11.2h1.4v9.8h5.18v1.4h-6.58Zm2.8-2.8v-8.4h1.4v7h2.38v1.4h-3.78Z"/>
    <path d="M432.857 94.12v-1.4h8.96v1.4h-8.96Zm0 2.8v-1.4h8.96v1.4h-8.96Z"/>
    <path d="M440.859 96.92v-1.4h5.18v-9.8h1.4v11.2h-6.58Zm0-2.8v-1.4h2.38v-7h1.4v8.4h-3.78Z"/>
</svg>
